<?xml version="1.0" encoding="UTF-8" standalone="no"?>
<!DOCTYPE svg PUBLIC "-//W3C//DTD SVG 1.1//EN" "http://www.w3.org/Graphics/SVG/1.1/DTD/svg11.dtd">
<svg width="100%" height="100%" viewBox="0 0 1280 640" version="1.1" xmlns="http://www.w3.org/2000/svg" xmlns:xlink="http://www.w3.org/1999/xlink" xml:space="preserve" xmlns:serif="http://www.serif.com/" style="fill-rule:evenodd;clip-rule:evenodd;stroke-linecap:round;stroke-linejoin:round;stroke-miterlimit:1.5;">
    <g transform="matrix(1.40004,0,0,1.40004,-251.827,-92.2726)">
        <g>
            <g transform="matrix(1,0,0,1,4,-11)">
                <path d="M200,300L364.287,300C373.759,300 382.842,303.763 389.54,310.46C396.237,317.158 400,326.241 400,335.713C400,344.999 400,355.001 400,364.287C400,373.759 403.763,382.842 410.46,389.54C417.158,396.237 426.241,400 435.713,400L480,400" style="fill:none;stroke:rgb(199,231,235);stroke-width:11.9px;"/>
                <g transform="matrix(1,0,0,1,-290,-170)">
                    <circle cx="490" cy="470" r="10" style="fill:none;stroke:rgb(199,231,235);stroke-width:11.9px;"/>
                </g>
            </g>
            <g transform="matrix(1,0,0,1,4,-11)">
                <path d="M480,400L524.287,400C533.759,400 542.842,396.237 549.54,389.54C556.237,382.842 560,373.759 560,364.287L560,195.713C560,186.241 563.763,177.158 570.46,170.46C577.158,163.763 586.241,160 595.713,160L650,160" style="fill:none;stroke:rgb(250,226,183);stroke-width:11.9px;"/>
                <g transform="matrix(1,0,0,1,-10,-70)">
                    <circle cx="490" cy="470" r="10" style="fill:none;stroke:rgb(250,226,183);stroke-width:11.9px;"/>
                </g>
            </g>
            <g transform="matrix(1,0,0,1,4,-11)">
                <path d="M650,160L704.287,160C713.759,160 722.842,163.763 729.54,170.46C736.237,177.158 740,186.241 740,195.713C740,216.743 740,243.257 740,264.287C740,273.759 743.763,282.842 750.46,289.54C757.158,296.237 766.241,300 775.713,300L890,300" style="fill:none;stroke:rgb(247,201,187);stroke-width:11.9px;"/>
                <g transform="matrix(1,0,0,1,160,-310)">
                    <circle cx="490" cy="470" r="10" style="fill:none;stroke:rgb(247,201,187);stroke-width:11.9px;"/>
                </g>
            </g>
            <g transform="matrix(1,0,0,1,4,-11)">
                <path d="M890,300L1076,300L1052,271L1076,300L1052,331" style="fill:none;stroke:rgb(197,220,237);stroke-width:11.9px;"/>
                <g transform="matrix(1,0,0,1,400,-170)">
                    <circle cx="490" cy="470" r="10" style="fill:none;stroke:rgb(197,220,237);stroke-width:11.9px;"/>
                </g>
            </g>
        </g>
        <g transform="matrix(1,0,0,1,51.0702,-65.9077)">
            <path d="M310.193,431.952L300.304,494.838C299.377,500.915 296.596,505.937 291.961,509.902C287.326,513.868 281.918,515.851 275.737,515.851C270.072,515.851 265.591,514.229 262.295,510.984C258.999,507.739 257.351,503.645 257.351,498.7C257.351,495.816 260.595,475.369 267.085,437.36C276.767,378.234 282.845,331.366 285.317,296.755C286.141,283.776 289.463,273.733 295.283,266.626C301.103,259.518 307.669,255.965 314.983,255.965C320.751,255.965 325.284,257.896 328.58,261.759C331.876,265.621 333.112,270.334 332.288,275.896L331.67,277.441C346.709,269.922 361.182,266.162 375.087,266.162C410.213,266.162 427.776,286.197 427.776,326.267C427.776,361.701 418.685,388.689 400.504,407.23C382.324,425.771 361.388,435.042 337.696,435.042C327.807,435.042 318.64,434.012 310.193,431.952ZM325.953,325.649C324.099,341.924 321.266,363.092 317.455,389.152C326.108,392.14 335.069,393.633 344.34,393.633C358.658,393.633 369.036,387.35 375.474,374.783C381.912,362.216 385.131,347.898 385.131,331.829C385.131,315.451 379.671,307.262 368.753,307.262C355.671,307.262 341.404,313.391 325.953,325.649Z" style="fill:rgb(57,146,156);fill-rule:nonzero;"/>
            <path d="M437.201,371.538C437.201,345.787 446.549,321.734 465.244,299.382C483.94,277.029 507.966,265.853 537.323,265.853C554.216,265.853 567.479,271.596 577.11,283.081C586.741,294.566 591.556,309.734 591.556,328.584C591.556,355.675 582.724,380.191 565.058,402.131C547.392,424.072 525.375,435.042 499.005,435.042C480.67,435.042 465.785,429.042 454.351,417.042C442.918,405.041 437.201,389.874 437.201,371.538ZM480.464,365.358C480.464,374.113 482.601,381.118 486.876,386.371C491.15,391.625 497.305,394.251 505.34,394.251C518.731,394.251 529.392,388.612 537.323,377.332C545.255,366.053 549.221,351.555 549.221,333.838C549.221,315.709 542.268,306.644 528.362,306.644C514.765,306.644 503.383,313.211 494.215,326.344C485.047,339.477 480.464,352.482 480.464,365.358Z" style="fill:rgb(242,173,50);fill-rule:nonzero;"/>
            <path d="M599.282,375.247C599.282,351.658 609.737,326.833 630.648,300.773C651.558,274.712 673.241,261.681 695.696,261.681C707.13,261.681 719.723,264.797 733.474,271.029C747.226,277.261 754.101,284.446 754.101,292.584C754.101,298.043 751.809,303.064 747.226,307.648C742.642,312.232 737.26,314.524 731.079,314.524C726.444,314.524 721.5,312.206 716.246,307.571C710.787,302.73 701.825,300.309 689.362,300.309C681.121,300.309 670.846,308.807 658.537,325.803C646.227,342.799 640.073,356.963 640.073,368.294C640.073,376.74 643.214,383.616 649.498,388.921C655.781,394.226 664.64,396.878 676.074,396.878C683.078,396.878 691.937,394.2 702.649,388.843C713.774,383.59 720.624,380.963 723.199,380.963C728.247,380.963 732.393,382.689 735.637,386.14C738.882,389.59 740.504,393.582 740.504,398.114C740.504,407.179 731.388,415.702 713.156,423.686C694.924,431.669 680.554,435.66 670.048,435.66C648.725,435.66 631.6,430.098 618.673,418.973C605.746,407.848 599.282,393.273 599.282,375.247Z" style="fill:rgb(231,98,57);fill-rule:nonzero;"/>
            <path d="M766.153,371.538C766.153,345.787 775.501,321.734 794.197,299.382C812.893,277.029 836.919,265.853 866.276,265.853C883.169,265.853 896.431,271.596 906.062,283.081C915.693,294.566 920.509,309.734 920.509,328.584C920.509,355.675 911.676,380.191 894.01,402.131C876.345,424.072 854.327,435.042 827.957,435.042C809.622,435.042 794.738,429.042 783.304,417.042C771.87,405.041 766.153,389.874 766.153,371.538ZM809.416,365.358C809.416,374.113 811.553,381.118 815.828,386.371C820.103,391.625 826.258,394.251 834.292,394.251C847.683,394.251 858.344,388.612 866.276,377.332C874.207,366.053 878.173,351.555 878.173,333.838C878.173,315.709 871.22,306.644 857.314,306.644C843.717,306.644 832.335,313.211 823.167,326.344C814,339.477 809.416,352.482 809.416,365.358Z" style="fill:rgb(48,109,152);fill-rule:nonzero;"/>
        </g>
    </g>
</svg>
